General
Format                           : MPEG-4
Format profile                   : Base Media / Version 2
Codec ID                         : mp42
File size                        : 1.80 GiB
Duration                         : 2h 32mn
Overall bit rate                 : 1 692 Kbps
Encoded date                     : UTC 2011-09-30 15:17:16
Tagged date                      : UTC 2011-09-30 17:53:09

Video
ID                               : 1
Format                           : AVC
Format/Info                      : Advanced Video Codec
Format profile                   : Main@L3.0
Format settings, CABAC           : Yes
Format settings, ReFrames        : 2 frames
Format settings, GOP             : M=1, N=60
Codec ID                         : avc1
Codec ID/Info                    : Advanced Video Coding
Duration                         : 2h 32mn
Bit rate mode                    : Variable
Bit rate                         : 1 239 Kbps
Maximum bit rate                 : 4 566 Kbps
Width                            : 720 pixels
Height                           : 480 pixels
Display aspect ratio             : 16:9
Frame rate mode                  : Constant
Frame rate                       : 29.970 fps
Standard                         : NTSC
Color space                      : YUV
Chroma subsampling               : 4:2:0
Bit depth                        : 8 bits
Scan type                        : Progressive
Bits/(Pixel*Frame)               : 0.120
Stream size                      : 1.32 GiB (73%)
Language                         : English
Encoded date                     : UTC 2011-09-30 15:17:19
Tagged date                      : UTC 2011-09-30 17:53:09
Material_Duration                : 9160185
Material_StreamSize              : 1418935874
Material_FrameCount              : 274531

Audio
ID                               : 2
Format                           : AC-3
Format/Info                      : Audio Coding 3
Mode extension                   : CM (complete main)
Codec ID                         : ac-3
Duration                         : 2h 32mn
Bit rate mode                    : Constant
Bit rate                         : 448 Kbps
Channel(s)                       : 6 channels
Channel positions                : Front: L C R, Side: L R, LFE
Sampling rate                    : 48.0 KHz
Bit depth                        : 16 bits
Compression mode                 : Lossy
Stream size                      : 489 MiB (26%)
Title                            : Não especificado
Language                         : English
Encoded date                     : UTC 2011-09-30 15:17:19
Tagged date                      : UTC 2011-09-30 17:53:09
Material_Duration                : 9160160
Material_StreamSize              : 512968960

Menu
1. Funeral For a Friend 
2. Candle In The Wind 
3. Bennie And The Jets 
4. Goodbye Yellow Brick Road 
5. Someone Saved My Life Tonight 
6. Little Jeannie 
7. Philadelphia Freedom 
8. Tiny Dancer 
9. Can You Feel The Love Tonight? 
10. Daniel 
11. Rocket Man 
12. Club At The End Of The Street 
13. Blue Eyes 
14. I Guess That´s Why They Call It The Blues 
15. The One 
16. O Don´t Wanna Go On With You Like That 
17. Sorry Seems To Be The Hardest Word 
18. Sacrifice 
19. Come Together 
20. Your Song 
21. Sad Songs 
22. I´m Still Standing 
23. Crocodile Rock 
24. Saturday Night´s Alright For Fighting 
25. The Bitch is Back 
26. Don´t Let The Sun Go Down On Me 
27. Don´t Go Breaking My Heart 